<?xml version="1.0" encoding="UTF-8"?><svg id="Layer_1" xmlns="http://www.w3.org/2000/svg" viewBox="0 0 147 147"><defs><style>.cls-1{fill:#eee;}</style></defs><circle class="cls-1" cx="73.5" cy="8.5" r="8.5"/><circle class="cls-1" cx="138.5" cy="73.5" r="8.5"/><circle class="cls-1" cx="73.5" cy="138.5" r="8.5"/><circle class="cls-1" cx="8.5" cy="73.5" r="8.5"/><circle class="cls-1" cx="119.46194" cy="27.53806" r="8.5"/><circle class="cls-1" cx="119.46194" cy="119.46194" r="8.5"/><circle class="cls-1" cx="27.53806" cy="119.46194" r="8.5"/><path class="cls-1" d="M84.98749,119.59308c.48499-.12048,.96442-.25421,1.44336-.38947,.27014-.07617,.54077-.14893,.80975-.22992,.44696-.13489,.88849-.28149,1.32983-.42908,.30151-.10065,.60352-.19879,.90332-.3056,.39618-.14148,.78729-.29309,1.17859-.4447,.34344-.13275,.68701-.26428,1.02795-.40533,.33984-.14093,.67487-.29053,1.01068-.43909,.38403-.16949,.76782-.33887,1.14813-.51904,.28894-.13715,.57318-.2818,.85883-.42456,.41516-.20709,.82977-.41504,1.23999-.63507,.24829-.13336,.49182-.27368,.73743-.41125,.43353-.24261,.86633-.48657,1.2937-.74384,.22302-.13434,.44104-.27563,.66162-.41351,.43457-.27148,.86853-.54401,1.29602-.83087,.21851-.14661,.43115-.30084,.64703-.45093,.41516-.2887,.83032-.57703,1.23816-.88055,.24115-.17926,.47467-.36786,.71228-.55164,.36981-.28625,.74139-.56927,1.10455-.86798,.3092-.25403,.60773-.52008,.91034-.78168,.28217-.24414,.56842-.48096,.84607-.73285,1.16077-1.05194,2.26904-2.16022,3.32098-3.32098,.25189-.27765,.48871-.5639,.73285-.84607,.2616-.30261,.52765-.60114,.78168-.91034,.29871-.36316,.58173-.73474,.86798-1.10455,.18378-.23761,.37238-.47113,.55164-.71228,.30353-.40784,.59186-.823,.88055-1.23816,.15009-.21588,.30432-.42853,.45093-.64703,.28687-.42749,.55939-.86145,.83087-1.29602,.13788-.22058,.27917-.4386,.41351-.66162,.25726-.42737,.50122-.86017,.74384-1.2937,.13757-.24561,.27789-.48914,.41125-.73743,.22003-.41022,.42798-.82483,.63507-1.23999,.14276-.28564,.28741-.56989,.42456-.85883,.18005-.38013,.34937-.76373,.5188-1.14752,.14874-.33618,.29852-.67163,.43958-1.01184,.14087-.34045,.27216-.68353,.40472-1.02649,.15179-.3916,.30347-.78302,.44507-1.17957,.10687-.2998,.20496-.60181,.3056-.90326,.14758-.44135,.29419-.88287,.42908-1.32983,.08099-.26898,.15375-.53961,.22992-.80975,.13525-.47894,.26898-.95837,.38947-1.44336,.06238-.25116,.11627-.50372,.17444-.75568,.11572-.50085,.23022-1.00195,.32996-1.50879,.05054-.25641,.09149-.5141,.1377-.77118,.08972-.49915,.17969-.99805,.25366-1.50244,.0437-.297,.07538-.59509,.11346-.89276,.05914-.46423,.1217-.92725,.16736-1.39557,.03912-.39893,.06201-.79877,.09106-1.19843,.02679-.37128,.06171-.74023,.0799-1.11383,.07697-1.56482,.07697-3.13281,0-4.69763-.01819-.3736-.0531-.74255-.0799-1.11383-.02905-.39966-.05194-.7995-.09106-1.19843-.04565-.46832-.10822-.93134-.16736-1.39557-.03809-.29767-.06976-.59576-.11346-.89276-.07397-.50439-.16394-1.0033-.25366-1.50244-.0462-.25708-.08716-.51477-.1377-.77118-.09973-.50684-.21423-1.00793-.32996-1.50879-.05817-.25195-.11206-.50452-.17444-.75568-.12048-.48499-.25421-.96442-.38947-1.44336-.07617-.27014-.14893-.54077-.22992-.80975-.13489-.44696-.28149-.88849-.42908-1.32983-.10065-.30151-.19879-.60352-.3056-.90332-.14148-.39618-.29309-.78729-.4447-1.17859-.13275-.34344-.26428-.68701-.40533-1.02795-.14093-.33984-.29053-.67487-.43909-1.01068-.16949-.38403-.33887-.76782-.51904-1.14813-.13715-.28894-.2818-.57318-.42456-.85883-.20709-.41516-.41504-.82977-.63507-1.23999-.13336-.24829-.27368-.49182-.41125-.73743-.24261-.43353-.48657-.86633-.74384-1.2937-.13434-.22302-.27563-.44104-.41351-.66162-.27148-.43457-.54401-.86853-.83087-1.29602-.14661-.21851-.30084-.43115-.45093-.64703-.2887-.41516-.57703-.83032-.88055-1.23816-.17926-.24115-.36786-.47467-.55164-.71228-.28625-.36981-.56927-.74139-.86798-1.10455-.25403-.3092-.52008-.60773-.78168-.91034-.24414-.28217-.48096-.56842-.73285-.84607-1.05194-1.16077-2.16022-2.26904-3.32098-3.32098-.27765-.25189-.5639-.48871-.84607-.73285-.30261-.2616-.60114-.52765-.91034-.78168-.36316-.29871-.73474-.58167-1.10455-.86798-.23761-.18378-.47113-.37238-.71228-.55164-.40784-.30353-.823-.59186-1.23816-.88055-.21588-.15009-.42853-.30432-.64703-.45093-.42816-.28729-.86273-.56024-1.29797-.83209-.21967-.13727-.43665-.27795-.65869-.41168-.42883-.25818-.8631-.50305-1.29816-.74646-.24396-.13666-.48596-.27606-.7326-.40851-.41132-.22058-.82697-.42914-1.24329-.63678-.28491-.1424-.56848-.28668-.85663-.42346-.38043-.18018-.76428-.34961-1.14838-.51917-.33582-.14856-.67084-.29816-1.01068-.43909-.34131-.14124-.6853-.27289-1.02917-.40582-.39044-.15131-.78064-.30255-1.17603-.44373-.30121-.1073-.60449-.20593-.90735-.30701-.44037-.14722-.88098-.29352-1.32703-.4281-.26941-.08118-.54047-.15405-.81104-.23029-.47809-.13501-.95667-.26855-1.44073-.38885-.2533-.06287-.50806-.11725-.76221-.1759-.49872-.11517-.99762-.22913-1.5022-.32849-.25897-.05103-.51929-.09241-.77893-.1391-.49658-.08917-.99292-.17877-1.49475-.25238-.30035-.04419-.60175-.07629-.90271-.11469-.461-.05865-.92072-.12091-1.38568-.1662-.40405-.03967-.80902-.06299-1.21381-.09229-.36621-.02631-.73016-.06079-1.09857-.07874-1.5658-.07703-3.1344-.07703-4.7002,0-.36841,.01794-.73236,.05243-1.09857,.07874-.40479,.0293-.80975,.05261-1.21381,.09229-.46497,.04529-.92468,.10754-1.38568,.1662-.30096,.03839-.60236,.0705-.90271,.11469-.50183,.07361-.99817,.16321-1.49475,.25238-.25964,.04669-.51996,.08807-.77893,.1391-.50458,.09937-1.00348,.21332-1.5022,.32849-.25415,.05865-.50891,.11304-.76221,.1759-.48407,.1203-.96265,.25385-1.44073,.38885-.27057,.07623-.54163,.14911-.81104,.23029-.44604,.13458-.88666,.28088-1.32703,.4281-.30286,.10107-.60608,.19965-.90729,.30701-.39569,.1413-.78625,.29266-1.177,.44409-.34338,.13275-.68683,.26416-1.02771,.40521-.34021,.14105-.67566,.29083-1.01184,.43958-.38391,.16943-.76752,.33881-1.14777,.51892-.28815,.13678-.57172,.28107-.85663,.42346-.41632,.20764-.83197,.4162-1.24329,.63678-.24664,.13245-.48865,.27185-.7326,.40851-.43506,.24341-.86932,.48828-1.29816,.74646-.22205,.13373-.43903,.27441-.65869,.41168-.43524,.27185-.86981,.5448-1.29797,.83209-.21851,.14661-.43115,.30084-.64703,.45093-.41516,.2887-.83032,.57703-1.23816,.88055-.24115,.17926-.47467,.36786-.71228,.55164-.36981,.28632-.74139,.56927-1.10455,.86798-.3092,.25403-.60773,.52008-.91034,.78168-.28217,.24414-.56842,.48096-.84607,.73285-1.16077,1.05194-2.26904,2.16022-3.32098,3.32098-.25189,.27765-.48871,.5639-.73285,.84607-.2616,.30261-.52765,.60114-.78168,.91034-.29871,.36316-.58173,.73474-.86798,1.10455-.18378,.23761-.37238,.47113-.55164,.71228-.30353,.40784-.59186,.823-.88055,1.23816-.15009,.21588-.30432,.42853-.45093,.64703-.28687,.42749-.55939,.86145-.83087,1.29602-.13788,.22058-.27917,.4386-.41351,.66162-.25726,.42737-.50122,.86017-.74384,1.2937-.13757,.24561-.27789,.48914-.41125,.73743-.22003,.41022-.42798,.82483-.63507,1.23999-.14276,.28564-.28741,.56989-.42456,.85883-.18018,.38031-.34955,.7641-.51904,1.14813-.14856,.33582-.29816,.67084-.43909,1.01068-.14105,.34094-.27258,.68451-.40533,1.02795-.15161,.3913-.30322,.78241-.4447,1.17859-.10681,.2998-.20496,.60181-.3056,.90332-.14758,.44135-.29419,.88287-.42908,1.32983-.08099,.26898-.15375,.53961-.22992,.80975-.13525,.47894-.26898,.95837-.38947,1.44336-.06238,.25116-.11627,.50372-.17444,.75568-.11572,.50085-.23022,1.00195-.32996,1.50879-.05054,.25641-.09149,.5141-.1377,.77118-.08972,.49915-.17969,.99805-.25366,1.50244-.0437,.297-.07538,.59509-.11346,.89276-.05914,.46423-.1217,.92725-.16736,1.39557-.03912,.39893-.06201,.79877-.09106,1.19843-.02679,.37128-.06171,.74023-.0799,1.11383-.07697,1.56482-.07697,3.13281,0,4.69763,.01819,.3736,.0531,.74255,.0799,1.11383,.02905,.39966,.05194,.7995,.09106,1.19843,.04565,.46832,.10822,.93134,.16736,1.39557,.03809,.29767,.06976,.59576,.11346,.89276,.07397,.50439,.16394,1.0033,.25366,1.50244,.0462,.25708,.08716,.51477,.1377,.77118,.09973,.50684,.21423,1.00793,.32996,1.50879,.05817,.25195,.11206,.50452,.17444,.75568,.12048,.48499,.25421,.96442,.38947,1.44336,.07617,.27014,.14893,.54077,.22992,.80975,.13489,.44696,.28149,.88849,.42908,1.32983,.10065,.30145,.19873,.60345,.3056,.90326,.1416,.39655,.29327,.78796,.44507,1.17957,.13257,.34296,.26385,.68604,.40472,1.02649,.14105,.34021,.29083,.67566,.43958,1.01184,.16943,.38379,.33875,.7674,.5188,1.14752,.13715,.28894,.2818,.57318,.42456,.85883,.20709,.41516,.41504,.82977,.63507,1.23999,.13336,.24829,.27368,.49182,.41125,.73743,.24261,.43353,.48657,.86633,.74384,1.2937,.13434,.22302,.27563,.44104,.41351,.66162,.27148,.43457,.54401,.86853,.83087,1.29602,.14661,.21851,.30084,.43115,.45093,.64703,.2887,.41516,.57703,.83032,.88055,1.23816,.17926,.24115,.36786,.47467,.55164,.71228,.28625,.36981,.56927,.74139,.86798,1.10455,.25403,.3092,.52008,.60773,.78168,.91034,.24414,.28217,.48096,.56842,.73285,.84607,1.05194,1.16077,2.16022,2.26904,3.32098,3.32098,.27765,.25189,.5639,.48871,.84607,.73285,.30261,.2616,.60114,.52765,.91034,.78168,.36316,.29871,.73474,.58173,1.10455,.86798,.23761,.18378,.47113,.37238,.71228,.55164,.40784,.30353,.823,.59186,1.23816,.88055,.21588,.15009,.42853,.30432,.64703,.45093,.42749,.28687,.86145,.55939,1.29602,.83087,.22058,.13788,.4386,.27917,.66162,.41351,.42737,.25726,.86017,.50122,1.2937,.74384,.24561,.13757,.48914,.27789,.73743,.41125,.41022,.22003,.82483,.42798,1.23999,.63507,.28564,.14276,.56989,.28741,.85883,.42456,.38013,.18005,.76373,.34937,1.14752,.5188,.33618,.14874,.67163,.29852,1.01184,.43958,.34045,.14087,.68353,.27216,1.02649,.40472,.3916,.15179,.78302,.30347,1.17957,.44507,.2998,.10687,.60181,.20496,.90326,.3056,.44135,.14758,.88287,.29419,1.32983,.42908,.26898,.08099,.53961,.15375,.80975,.22992,.47894,.13525,.95837,.26898,1.44336,.38947,.25116,.06238,.50372,.11627,.75568,.17444,.50085,.11572,1.00195,.23022,1.50879,.32996,.25641,.05054,.5141,.09149,.77118,.1377,.49915,.08972,.99805,.17969,1.50244,.25366,.297,.0437,.59509,.07538,.89276,.11346,.46423,.05914,.92725,.1217,1.39557,.16736,.39893,.03912,.79877,.06201,1.19843,.09106,.37128,.02679,.74023,.06171,1.11383,.0799,1.56482,.07697,3.13281,.07697,4.69763,0,.3736-.01819,.74255-.0531,1.11383-.0799,.39966-.02905,.7995-.05194,1.19843-.09106,.46832-.04565,.93134-.10822,1.39557-.16736,.29767-.03809,.59576-.06976,.89276-.11346,.50439-.07397,1.0033-.16394,1.50244-.25366,.25708-.0462,.51477-.08716,.77118-.1377,.50684-.09973,1.00793-.21423,1.50879-.32996,.25195-.05817,.50452-.11206,.75568-.17444Z"/><circle class="cls-1" cx="27.53806" cy="27.53806" r="8.5"/></svg>